<svg xmlns="http://www.w3.org/2000/svg" width="103" height="103" viewBox="0 0 103 103"><g transform="translate(-394 -2706.733)"><circle cx="51.5" cy="51.5" r="51.5" transform="translate(394 2706.733)" fill="#35aa59"/><g transform="translate(367.238 2729.091)"><path d="M100.692,48.922A9.09,9.09,0,0,0,97.1,43.75a14.707,14.707,0,0,0-2.41-1.395c-1.245-.583-2.519-1.032-3.693-1.466a19.532,19.532,0,0,1-3.084-1.35,6.406,6.406,0,0,1-.82-.564,3.561,3.561,0,0,1-.831-.968,3.1,3.1,0,0,1-.388-1.249,9.6,9.6,0,0,1-.053-1.007,12.1,12.1,0,0,1,.315-2.588A11.2,11.2,0,0,0,87.6,31.018,23.279,23.279,0,0,0,88.921,28a5.687,5.687,0,0,0,2.529-2.234,9.232,9.232,0,0,0,1.154-2.93,4.429,4.429,0,0,0,.11-.98,4.474,4.474,0,0,0-.427-1.894,5.091,5.091,0,0,0-.7-1.1c.14-.518.311-1.217.463-2.033a21.819,21.819,0,0,0,.384-3.931,14.435,14.435,0,0,0-.26-2.821A10.248,10.248,0,0,0,91.537,8,7.729,7.729,0,0,0,89.576,5.26a8.129,8.129,0,0,0-3.088-1.677A11.314,11.314,0,0,0,84.86,1.976,8.725,8.725,0,0,0,81.913.415,10.549,10.549,0,0,0,78.853,0c-.539,0-1.076.03-1.617.078-.505.046-.925.1-1.3.162a8.886,8.886,0,0,0-1.473.374c-.45.155-.882.336-1.45.558-.215.085-.5.21-.838.382A14.754,14.754,0,0,0,70,2.91a13.981,13.981,0,0,0-3.646,3.967,12.283,12.283,0,0,0-1.3,2.976,13.218,13.218,0,0,0-.505,3.675,16.169,16.169,0,0,0,.228,2.638c0,.064,0,.128.007.189.007.114.02.235.032.359.02.183.041.374.057.534.009.078.016.149.021.206,0,.027,0,.05,0,.068v.13l.226,1a5.261,5.261,0,0,0-.824,1.188,4.472,4.472,0,0,0-.484,2.015,4.423,4.423,0,0,0,.108.978,10.168,10.168,0,0,0,.7,2.09,6.53,6.53,0,0,0,1.551,2.142A5.667,5.667,0,0,0,67.6,28a23.214,23.214,0,0,0,1.32,3.015,11.1,11.1,0,0,0,1.46,2.145,12.2,12.2,0,0,1,.315,2.59,9.547,9.547,0,0,1-.052,1.007,3.265,3.265,0,0,1-.221.9,3.152,3.152,0,0,1-.719,1.057,5.835,5.835,0,0,1-1.215.888,14.371,14.371,0,0,1-1.683.79c-1.087.439-2.323.856-3.579,1.354a20.289,20.289,0,0,0-2.8,1.341,11.383,11.383,0,0,0-1.941,1.418,8.865,8.865,0,0,0-2.22,3.134,11.575,11.575,0,0,0-.84,4.571,1.947,1.947,0,0,0,.14.713,2.561,2.561,0,0,0,.324.578,4.484,4.484,0,0,0,.961.93,11.6,11.6,0,0,0,2.787,1.432,34.807,34.807,0,0,0,7.231,1.708,81.827,81.827,0,0,0,11.391.71,85.386,85.386,0,0,0,10.125-.546,46.508,46.508,0,0,0,5.491-.961,26.106,26.106,0,0,0,3.027-.923,14.407,14.407,0,0,0,1.709-.761,8.736,8.736,0,0,0,.985-.608,4.524,4.524,0,0,0,1.046-1,2.663,2.663,0,0,0,.322-.589,1.967,1.967,0,0,0,.126-.68A12.717,12.717,0,0,0,100.692,48.922Zm-24.418.859-6.72-8.591a8.2,8.2,0,0,0,.994-.676,5.838,5.838,0,0,0,.913-.9l4.886,2.268L75.3,43.618l1.615,1.713ZM72.153,38.463a5.071,5.071,0,0,0,.386-1.508,11.408,11.408,0,0,0,.064-1.2,14.848,14.848,0,0,0-.411-3.244l-.059-.258-.181-.192A8.985,8.985,0,0,1,70.6,30.117a23.112,23.112,0,0,1-1.346-3.152l-.149-.422-.42-.155a3.905,3.905,0,0,1-.847-.427,4.047,4.047,0,0,1-1.156-1.213,7.351,7.351,0,0,1-.907-2.33A2.535,2.535,0,0,1,66,20.694a3.331,3.331,0,0,1,.626-.857,13.5,13.5,0,0,0,.93,1.314c.427.429.293.3.436.085,0,0,.486-.683,3.054-5.68C76.181,16.7,85.16,8.981,85.16,8.981a9.479,9.479,0,0,0,1.821,4.776c1.624,2.166,2.551,7.252,2.551,7.252s.221-.418.55-.98a3.193,3.193,0,0,1,.48.736,2.53,2.53,0,0,1,.187,1.652,8.308,8.308,0,0,1-.566,1.7,4.607,4.607,0,0,1-1.094,1.528,3.812,3.812,0,0,1-1.249.742l-.42.153-.149.422a22.97,22.97,0,0,1-1.346,3.154,8.915,8.915,0,0,1-1.354,1.942l-.181.192-.057.26a14.677,14.677,0,0,0-.413,3.241,11.9,11.9,0,0,0,.062,1.2,5.151,5.151,0,0,0,.334,1.384.561.561,0,0,0,.025.057L78.56,41.437Zm8.563,11.629-.692-4.762,1.617-1.713-1.046-1.747,4.42-2.323a4.962,4.962,0,0,0,.39.45,7.235,7.235,0,0,0,1.487,1.146Z" transform="translate(0 0)" fill="#fff"/></g></g></svg>