<svg xmlns="http://www.w3.org/2000/svg" width="18.282" height="18.313" viewBox="0 0 18.282 18.313"><path d="M18.456,16.835,13.3,11.659a7.18,7.18,0,0,0,.662-1l.017-.034c.086-.159.167-.321.241-.487.033-.073.059-.149.089-.223.044-.108.09-.215.129-.326.028-.079.049-.16.074-.239.035-.112.072-.222.1-.336.012-.048.02-.1.032-.145A7.161,7.161,0,0,0,14.3,4.482l-.012-.029c-.04-.1-.082-.19-.125-.284l-.017-.038c-.046-.1-.094-.191-.143-.286l-.013-.026A7.191,7.191,0,0,0,5.943.2c-.033.008-.067.013-.1.022-.121.031-.238.07-.356.107C5.414.354,5.34.373,5.268.4c-.119.041-.234.09-.35.138-.066.027-.133.05-.2.079A7.2,7.2,0,0,0,1.306,3.755L1.3,3.766c-.091.167-.176.337-.253.511-.029.065-.052.132-.079.2-.048.117-.1.232-.139.352C.8,4.9.786,4.97.763,5.041c-.038.119-.077.238-.108.36-.011.041-.017.084-.027.125A7.2,7.2,0,0,0,9.361,14.2l.055-.012c.135-.034.266-.077.4-.119.059-.019.119-.034.178-.054.12-.042.236-.091.353-.139.066-.027.133-.05.2-.079.138-.061.271-.13.4-.2.041-.021.083-.039.123-.061a7.213,7.213,0,0,0,1-.657l5.163,5.179a.864.864,0,0,0,.611.255.866.866,0,0,0,.613-1.478ZM13.037,7.214a5.413,5.413,0,0,1-5.412,5.4A5.41,5.41,0,0,1,2.227,7.2,5.412,5.412,0,0,1,7.64,1.8,5.41,5.41,0,0,1,13.037,7.214Z" transform="translate(-0.426 0)" fill="#35aa59"/></svg>