<svg xmlns="http://www.w3.org/2000/svg" width="13.586" height="13.609" viewBox="0 0 13.586 13.609">
  <g id="検索用の虫眼鏡アイコン_7" data-name="検索用の虫眼鏡アイコン 7" transform="translate(-0.426 0)">
    <path id="パス_275" data-name="パス 275" d="M13.824,12.51,9.989,8.664a5.335,5.335,0,0,0,.492-.745l.013-.025c.064-.118.124-.238.179-.362.024-.054.044-.11.066-.165.033-.08.067-.16.1-.242.02-.059.036-.119.055-.178.026-.083.053-.165.075-.25.009-.035.015-.072.023-.108a5.322,5.322,0,0,0-.25-3.259l-.009-.022c-.029-.071-.061-.141-.093-.211l-.013-.028c-.034-.072-.07-.142-.107-.212l-.01-.019A5.344,5.344,0,0,0,4.526.151L4.451.167c-.09.023-.177.052-.265.079C4.132.263,4.078.277,4.024.3c-.089.031-.174.067-.26.1-.049.02-.1.037-.147.059A5.352,5.352,0,0,0,1.08,2.791l0,.008c-.067.124-.131.25-.188.38-.021.048-.039.1-.059.146-.036.087-.072.173-.1.261-.018.053-.032.107-.049.16C.649,3.835.62,3.923.6,4.014c-.008.031-.013.062-.02.093a5.35,5.35,0,0,0,6.49,6.445l.041-.009c.1-.026.2-.057.3-.088.044-.014.089-.025.132-.04.089-.031.176-.068.263-.1.049-.02.1-.037.148-.059.1-.045.2-.1.3-.148.03-.016.062-.029.092-.046a5.36,5.36,0,0,0,.741-.488l3.837,3.848a.642.642,0,0,0,.454.189.644.644,0,0,0,.456-1.1ZM9.8,5.361a4.022,4.022,0,0,1-4.022,4.01,4.021,4.021,0,0,1-4.01-4.022,4.022,4.022,0,0,1,4.022-4.01A4.02,4.02,0,0,1,9.8,5.361Z" transform="translate(0)" fill="#111"/>
  </g>
</svg>
