<svg xmlns="http://www.w3.org/2000/svg" width="103" height="103" viewBox="0 0 103 103"><g transform="translate(-391 -2487)"><circle cx="51.5" cy="51.5" r="51.5" transform="translate(391 2487)" fill="#35aa59"/><g transform="translate(411.949 2440.611)"><path d="M220.034,86.211a4.874,4.874,0,1,0-4.873-4.875A4.872,4.872,0,0,0,220.034,86.211Z" transform="translate(-189.484)" fill="#fff"/><path d="M220.809,172.037a4.769,4.769,0,0,0-4.768,4.768v3.568h9.538v-3.568A4.768,4.768,0,0,0,220.809,172.037Z" transform="translate(-190.259 -84.168)" fill="#fff"/><path d="M5.644,270.5a7.147,7.147,0,0,1-2.1-5.067v-7.374H0v7.374a10.723,10.723,0,0,0,10.712,10.714h4.837v-3.541H10.712A7.14,7.14,0,0,1,5.644,270.5Z" transform="translate(0 -159.924)" fill="#fff"/><path d="M51.45,106.421a4.673,4.673,0,1,0-4.672-4.673A4.669,4.669,0,0,0,51.45,106.421Z" transform="translate(-41.196 -18.153)" fill="#fff"/><path d="M63.329,203.03H56.774v-9.757a4.571,4.571,0,1,0-9.142,0v11.116A4.571,4.571,0,0,0,52.2,208.96l8.357-.023L61,215.7a2.51,2.51,0,1,0,5.019-.111l.266-9.608A2.952,2.952,0,0,0,63.329,203.03Z" transform="translate(-41.948 -98.843)" fill="#fff"/><path d="M393.712,258.057v7.374a7.186,7.186,0,0,1-7.172,7.173H381.7v3.541h4.838a10.724,10.724,0,0,0,10.711-10.714v-7.374Z" transform="translate(-336.15 -159.923)" fill="#fff"/><path d="M391.6,106.421a4.673,4.673,0,1,0-4.671-4.673A4.671,4.671,0,0,0,391.6,106.421Z" transform="translate(-340.749 -18.153)" fill="#fff"/><path d="M326.737,204.388V193.272a4.572,4.572,0,1,0-9.143,0v9.757h-6.555a2.952,2.952,0,0,0-2.954,2.954l.266,9.608a2.51,2.51,0,1,0,5.019.111l.438-6.765,8.357.023A4.572,4.572,0,0,0,326.737,204.388Z" transform="translate(-271.319 -98.842)" fill="#fff"/><rect width="25.346" height="4.314" transform="translate(18.336 98.179)" fill="#fff"/><rect width="2.949" height="10.442" transform="translate(29.124 104.808)" fill="#fff"/></g></g></svg>