<svg xmlns="http://www.w3.org/2000/svg" width="13.586" height="13.609"><g data-name="検索用の虫眼鏡アイコン 7"><path data-name="パス 275" d="M13.398 12.51L9.563 8.664a5.335 5.335 0 00.492-.745l.013-.025a5.07 5.07 0 00.179-.362c.024-.054.044-.11.066-.165l.1-.242c.02-.059.036-.119.055-.178.026-.083.053-.165.075-.25.009-.035.015-.072.023-.108a5.322 5.322 0 00-.25-3.259l-.009-.022c-.029-.071-.061-.141-.093-.211l-.013-.028a5.252 5.252 0 00-.107-.212l-.01-.019A5.344 5.344 0 004.1.151l-.075.016c-.09.023-.177.052-.265.079-.054.017-.108.031-.162.054-.089.031-.174.067-.26.1-.049.02-.1.037-.147.059A5.352 5.352 0 00.654 2.791v.008c-.067.124-.131.25-.188.38-.021.048-.039.1-.059.146-.036.087-.072.173-.1.261-.018.053-.032.107-.049.16a1.766 1.766 0 00-.084.268c-.008.031-.013.062-.02.093a5.35 5.35 0 006.49 6.445l.041-.009c.1-.026.2-.057.3-.088.044-.014.089-.025.132-.04.089-.031.176-.068.263-.1.049-.02.1-.037.148-.059.1-.045.2-.1.3-.148.03-.016.062-.029.092-.046a5.36 5.36 0 00.741-.488l3.837 3.848a.642.642 0 00.454.189.644.644 0 00.456-1.1zM9.374 5.361a4.022 4.022 0 01-4.022 4.01 4.021 4.021 0 01-4.01-4.022 4.022 4.022 0 014.022-4.01 4.02 4.02 0 014.01 4.022z" fill="#111"/></g></svg>