<svg xmlns="http://www.w3.org/2000/svg" width="103" height="103"><g transform="translate(-391 -2487)"><circle cx="51.5" cy="51.5" r="51.5" transform="translate(391 2487)" fill="#35aa59"/><g fill="#fff"><path d="M442.499 2526.822a4.874 4.874 0 10-4.873-4.875 4.872 4.872 0 004.873 4.875zm0 1.658a4.769 4.769 0 00-4.768 4.768v3.568h9.538v-3.568a4.768 4.768 0 00-4.77-4.768zm-24.906 22.707a7.147 7.147 0 01-2.1-5.067v-7.374h-3.544v7.374a10.723 10.723 0 0010.712 10.714h4.837v-3.541h-4.837a7.14 7.14 0 01-5.068-2.106zm4.61-22.308a4.673 4.673 0 10-4.672-4.673 4.669 4.669 0 004.672 4.673z"/><path d="M433.33 2544.798h-6.555v-9.757a4.571 4.571 0 10-9.142 0v11.116a4.571 4.571 0 004.568 4.571l8.357-.023.443 6.763a2.51 2.51 0 105.019-.111l.266-9.608a2.952 2.952 0 00-2.956-2.951zm36.181-6.053v7.374a7.186 7.186 0 01-7.172 7.173h-4.84v3.541h4.838a10.724 10.724 0 0010.711-10.714v-7.374zm-6.711-9.866a4.673 4.673 0 10-4.671-4.673 4.671 4.671 0 004.671 4.673z"/><path d="M467.367 2546.157v-11.116a4.572 4.572 0 10-9.143 0v9.757h-6.555a2.952 2.952 0 00-2.954 2.954l.266 9.608a2.51 2.51 0 105.019.111l.438-6.765 8.357.023a4.572 4.572 0 004.572-4.572z"/><path d="M430.285 2538.79h25.346v4.314h-25.346zm10.788 6.629h2.949v10.442h-2.949z"/></g></g></svg>