<svg xmlns="http://www.w3.org/2000/svg" width="103" height="103"><g transform="translate(-394 -2706.733)"><circle cx="51.5" cy="51.5" r="51.5" transform="translate(394 2706.733)" fill="#35aa59"/><path d="M467.93 2778.013a9.09 9.09 0 00-3.592-5.172 14.707 14.707 0 00-2.41-1.395c-1.245-.583-2.519-1.032-3.693-1.466a19.532 19.532 0 01-3.084-1.35 6.406 6.406 0 01-.82-.564 3.561 3.561 0 01-.831-.968 3.1 3.1 0 01-.388-1.249 9.6 9.6 0 01-.053-1.007 12.1 12.1 0 01.315-2.588 11.2 11.2 0 001.464-2.145 23.279 23.279 0 001.321-3.018 5.687 5.687 0 002.529-2.234 9.232 9.232 0 001.154-2.93 4.429 4.429 0 00.11-.98 4.474 4.474 0 00-.427-1.894 5.091 5.091 0 00-.7-1.1c.14-.518.311-1.217.463-2.033a21.819 21.819 0 00.384-3.931 14.435 14.435 0 00-.26-2.821 10.248 10.248 0 00-.637-2.077 7.729 7.729 0 00-1.961-2.74 8.129 8.129 0 00-3.088-1.677 11.314 11.314 0 00-1.628-1.607 8.725 8.725 0 00-2.947-1.561 10.549 10.549 0 00-3.06-.415c-.539 0-1.076.03-1.617.078-.505.046-.925.1-1.3.162a8.886 8.886 0 00-1.473.374c-.45.155-.882.336-1.45.558-.215.085-.5.21-.838.382a14.754 14.754 0 00-2.175 1.356 13.981 13.981 0 00-3.646 3.967 12.283 12.283 0 00-1.3 2.976 13.218 13.218 0 00-.505 3.675 16.169 16.169 0 00.228 2.638c0 .064 0 .128.007.189.007.114.02.235.032.359.02.183.041.374.057.534.009.078.016.149.021.206v.198l.226 1a5.261 5.261 0 00-.824 1.188 4.472 4.472 0 00-.484 2.015 4.423 4.423 0 00.108.978 10.168 10.168 0 00.7 2.09 6.53 6.53 0 001.551 2.142 5.667 5.667 0 001.429.935 23.214 23.214 0 001.32 3.015 11.1 11.1 0 001.46 2.145 12.2 12.2 0 01.315 2.59 9.547 9.547 0 01-.052 1.007 3.265 3.265 0 01-.221.9 3.152 3.152 0 01-.719 1.057 5.835 5.835 0 01-1.215.888 14.371 14.371 0 01-1.683.79c-1.087.439-2.323.856-3.579 1.354a20.289 20.289 0 00-2.8 1.341 11.383 11.383 0 00-1.941 1.418 8.865 8.865 0 00-2.22 3.134 11.575 11.575 0 00-.84 4.571 1.947 1.947 0 00.14.713 2.561 2.561 0 00.324.578 4.484 4.484 0 00.961.93 11.6 11.6 0 002.787 1.432 34.807 34.807 0 007.231 1.708 81.827 81.827 0 0011.391.71 85.386 85.386 0 0010.125-.546 46.508 46.508 0 005.491-.961 26.106 26.106 0 003.027-.923 14.407 14.407 0 001.709-.761 8.736 8.736 0 00.985-.608 4.524 4.524 0 001.046-1 2.663 2.663 0 00.322-.589 1.967 1.967 0 00.126-.68 12.717 12.717 0 00-.398-3.291zm-24.418.859l-6.72-8.591a8.2 8.2 0 00.994-.676 5.838 5.838 0 00.913-.9l4.886 2.268-1.047 1.736 1.615 1.713zm-4.121-11.318a5.071 5.071 0 00.386-1.508 11.408 11.408 0 00.064-1.2 14.848 14.848 0 00-.411-3.244l-.059-.258-.181-.192a8.985 8.985 0 01-1.352-1.944 23.112 23.112 0 01-1.346-3.152l-.149-.422-.42-.155a3.905 3.905 0 01-.847-.427 4.047 4.047 0 01-1.156-1.213 7.351 7.351 0 01-.907-2.33 2.535 2.535 0 01.225-1.724 3.331 3.331 0 01.626-.857 13.5 13.5 0 00.93 1.314c.427.429.293.3.436.085 0 0 .486-.683 3.054-5.68 5.135 1.144 14.114-6.575 14.114-6.575a9.479 9.479 0 001.821 4.776c1.624 2.166 2.551 7.252 2.551 7.252s.221-.418.55-.98a3.193 3.193 0 01.48.736 2.53 2.53 0 01.187 1.652 8.308 8.308 0 01-.566 1.7 4.607 4.607 0 01-1.094 1.528 3.812 3.812 0 01-1.249.742l-.42.153-.149.422a22.97 22.97 0 01-1.346 3.154 8.915 8.915 0 01-1.354 1.942l-.181.192-.057.26a14.677 14.677 0 00-.413 3.241 11.9 11.9 0 00.062 1.2 5.151 5.151 0 00.334 1.384.561.561 0 00.025.057l-5.781 3.045zm8.563 11.629l-.692-4.762 1.617-1.713-1.046-1.747 4.42-2.323a4.962 4.962 0 00.39.45 7.235 7.235 0 001.487 1.146z" fill="#fff"/></g></svg>