<svg xmlns="http://www.w3.org/2000/svg" width="18.282" height="18.313"><path d="M18.03 16.835l-5.156-5.176a7.18 7.18 0 00.662-1l.017-.034c.086-.159.167-.321.241-.487.033-.073.059-.149.089-.223.044-.108.09-.215.129-.326.028-.079.049-.16.074-.239.035-.112.072-.222.1-.336.012-.048.02-.1.032-.145a7.161 7.161 0 00-.344-4.387l-.012-.029c-.04-.1-.082-.19-.125-.284l-.017-.038c-.046-.1-.094-.191-.143-.286l-.013-.026A7.191 7.191 0 005.517.2c-.033.008-.067.013-.1.022-.121.031-.238.07-.356.107-.073.025-.147.044-.219.071-.119.041-.234.09-.35.138-.066.027-.133.05-.2.079A7.2 7.2 0 00.88 3.755l-.006.011a6.927 6.927 0 00-.253.511c-.029.065-.052.132-.079.2-.048.117-.1.232-.139.352-.029.071-.043.141-.066.212-.038.119-.077.238-.108.36-.011.041-.017.084-.027.125A7.2 7.2 0 008.935 14.2l.055-.012c.135-.034.266-.077.4-.119.059-.019.119-.034.178-.054.12-.042.236-.091.353-.139.066-.027.133-.05.2-.079.138-.061.271-.13.4-.2.041-.021.083-.039.123-.061a7.213 7.213 0 001-.657l5.163 5.179a.864.864 0 00.611.255.866.866 0 00.613-1.478zm-5.419-9.621a5.413 5.413 0 01-5.412 5.4A5.41 5.41 0 011.801 7.2a5.412 5.412 0 015.413-5.4 5.41 5.41 0 015.397 5.414z" fill="#35aa59"/></svg>